<mxfile host="app.diagrams.net" modified="2023-11-28T03:11:55.381Z" agent="Mozilla/5.0 (Macintosh; Intel Mac OS X 10_15_7) AppleWebKit/537.36 (KHTML, like Gecko) Chrome/119.0.0.0 Safari/537.36" etag="0E-pH-It9NjruEEv1i_e" version="22.1.4" type="github">
  <diagram name="第 1 页" id="fia4Q_GbsQsu37W39yw7">
    <mxGraphModel dx="954" dy="525" grid="1" gridSize="10" guides="1" tooltips="1" connect="1" arrows="1" fold="1" page="1" pageScale="1" pageWidth="827" pageHeight="1169" math="0" shadow="0">
      <root>
        <mxCell id="0" />
        <mxCell id="1" parent="0" />
        <mxCell id="mdsVBdoVZR-QJdXAhiCq-4" value="" style="edgeStyle=orthogonalEdgeStyle;rounded=0;orthogonalLoop=1;jettySize=auto;html=1;" edge="1" parent="1" source="mdsVBdoVZR-QJdXAhiCq-2" target="mdsVBdoVZR-QJdXAhiCq-3">
          <mxGeometry relative="1" as="geometry" />
        </mxCell>
        <mxCell id="mdsVBdoVZR-QJdXAhiCq-2" value="待执行任务" style="rounded=1;whiteSpace=wrap;html=1;fillColor=#dae8fc;strokeColor=#6c8ebf;" vertex="1" parent="1">
          <mxGeometry x="340" y="40" width="120" height="60" as="geometry" />
        </mxCell>
        <mxCell id="mdsVBdoVZR-QJdXAhiCq-6" value="" style="edgeStyle=orthogonalEdgeStyle;rounded=0;orthogonalLoop=1;jettySize=auto;html=1;" edge="1" parent="1" source="mdsVBdoVZR-QJdXAhiCq-3" target="mdsVBdoVZR-QJdXAhiCq-5">
          <mxGeometry relative="1" as="geometry" />
        </mxCell>
        <mxCell id="mdsVBdoVZR-QJdXAhiCq-8" value="" style="edgeStyle=orthogonalEdgeStyle;rounded=0;orthogonalLoop=1;jettySize=auto;html=1;" edge="1" parent="1" source="mdsVBdoVZR-QJdXAhiCq-3" target="mdsVBdoVZR-QJdXAhiCq-7">
          <mxGeometry relative="1" as="geometry" />
        </mxCell>
        <mxCell id="mdsVBdoVZR-QJdXAhiCq-3" value="任务特点" style="rhombus;whiteSpace=wrap;html=1;rounded=1;fillColor=#ffe6cc;strokeColor=#d79b00;" vertex="1" parent="1">
          <mxGeometry x="310" y="130" width="180" height="80" as="geometry" />
        </mxCell>
        <mxCell id="mdsVBdoVZR-QJdXAhiCq-10" value="" style="edgeStyle=orthogonalEdgeStyle;rounded=0;orthogonalLoop=1;jettySize=auto;html=1;" edge="1" parent="1" source="mdsVBdoVZR-QJdXAhiCq-5" target="mdsVBdoVZR-QJdXAhiCq-9">
          <mxGeometry relative="1" as="geometry" />
        </mxCell>
        <mxCell id="mdsVBdoVZR-QJdXAhiCq-5" value="IO密集型" style="whiteSpace=wrap;html=1;rounded=1;fillColor=#ffe6cc;strokeColor=#d79b00;" vertex="1" parent="1">
          <mxGeometry x="561" y="140" width="120" height="60" as="geometry" />
        </mxCell>
        <mxCell id="mdsVBdoVZR-QJdXAhiCq-18" value="" style="edgeStyle=orthogonalEdgeStyle;rounded=0;orthogonalLoop=1;jettySize=auto;html=1;" edge="1" parent="1" source="mdsVBdoVZR-QJdXAhiCq-7" target="mdsVBdoVZR-QJdXAhiCq-17">
          <mxGeometry relative="1" as="geometry" />
        </mxCell>
        <mxCell id="mdsVBdoVZR-QJdXAhiCq-7" value="CPU密集型" style="whiteSpace=wrap;html=1;rounded=1;fillColor=#ffe6cc;strokeColor=#d79b00;" vertex="1" parent="1">
          <mxGeometry x="117" y="140" width="120" height="60" as="geometry" />
        </mxCell>
        <mxCell id="mdsVBdoVZR-QJdXAhiCq-14" style="edgeStyle=orthogonalEdgeStyle;rounded=0;orthogonalLoop=1;jettySize=auto;html=1;exitX=1;exitY=0.5;exitDx=0;exitDy=0;entryX=1;entryY=0.5;entryDx=0;entryDy=0;" edge="1" parent="1" source="mdsVBdoVZR-QJdXAhiCq-9" target="mdsVBdoVZR-QJdXAhiCq-11">
          <mxGeometry relative="1" as="geometry" />
        </mxCell>
        <mxCell id="mdsVBdoVZR-QJdXAhiCq-16" value="" style="edgeStyle=orthogonalEdgeStyle;rounded=0;orthogonalLoop=1;jettySize=auto;html=1;" edge="1" parent="1" source="mdsVBdoVZR-QJdXAhiCq-9" target="mdsVBdoVZR-QJdXAhiCq-15">
          <mxGeometry relative="1" as="geometry">
            <Array as="points">
              <mxPoint x="458" y="294" />
            </Array>
          </mxGeometry>
        </mxCell>
        <mxCell id="mdsVBdoVZR-QJdXAhiCq-9" value="1. 需要超多仟务量？&lt;br&gt;2. 有现成协程库支持？&lt;br&gt;3. 协程实现复杂度可接受？" style="rhombus;whiteSpace=wrap;html=1;rounded=1;fillColor=#ffe6cc;strokeColor=#d79b00;" vertex="1" parent="1">
          <mxGeometry x="516" y="239" width="210" height="110" as="geometry" />
        </mxCell>
        <mxCell id="mdsVBdoVZR-QJdXAhiCq-11" value="使用asynico" style="whiteSpace=wrap;html=1;fillColor=#ffe6cc;strokeColor=#d79b00;rounded=1;" vertex="1" parent="1">
          <mxGeometry x="600" y="400" width="120" height="60" as="geometry" />
        </mxCell>
        <mxCell id="mdsVBdoVZR-QJdXAhiCq-15" value="使用多线程Threading" style="whiteSpace=wrap;html=1;fillColor=#ffe6cc;strokeColor=#d79b00;rounded=1;" vertex="1" parent="1">
          <mxGeometry x="398" y="400" width="120" height="60" as="geometry" />
        </mxCell>
        <mxCell id="mdsVBdoVZR-QJdXAhiCq-17" value="使用多进程&lt;span style=&quot;font-family: &amp;quot;Source Han Sans CN&amp;quot;; color: rgb(51, 51, 51); font-size: 16px;&quot;&gt;multiprocessing&lt;/span&gt;" style="whiteSpace=wrap;html=1;rounded=1;fillColor=#ffe6cc;strokeColor=#d79b00;" vertex="1" parent="1">
          <mxGeometry x="106" y="400" width="143" height="60" as="geometry" />
        </mxCell>
      </root>
    </mxGraphModel>
  </diagram>
</mxfile>
